<?xml version="1.0" standalone="no"?>
<!DOCTYPE svg PUBLIC "-//W3C//DTD SVG 20010904//EN"
 "http://www.w3.org/TR/2001/REC-SVG-20010904/DTD/svg10.dtd">
<svg version="1.0" xmlns="http://www.w3.org/2000/svg"
 width="1200.000000pt" height="640.000000pt" viewBox="0 0 1200.000000 640.000000"
 preserveAspectRatio="xMidYMid meet">

<g transform="translate(0.000000,640.000000) scale(0.100000,-0.100000)"
fill="#000000" stroke="none">
<path d="M6707 4803 c-37 -42 -19 -100 40 -131 37 -20 100 -15 123 10 23 25
23 28 10 64 l-10 27 -19 -22 c-22 -25 -56 -27 -79 -5 -13 13 -14 22 -5 45 11
28 10 29 -16 29 -15 0 -35 -8 -44 -17z"/>
<path d="M5885 4607 c-60 -4 -114 -12 -119 -17 -6 -6 -21 -10 -35 -10 -15 0
-39 -7 -55 -15 -15 -8 -33 -15 -39 -15 -20 0 -142 -63 -201 -104 -32 -23 -66
-45 -74 -51 -32 -20 -158 -152 -187 -195 -16 -25 -32 -47 -35 -50 -10 -10 -29
-46 -55 -100 -14 -30 -30 -63 -35 -72 -6 -10 -10 -22 -10 -27 0 -5 -5 -22 -12
-38 -26 -61 -41 -154 -45 -277 -2 -71 -1 -136 3 -145 11 -24 11 -23 19 -58 4
-18 14 -38 21 -44 8 -6 14 -18 14 -25 0 -8 5 -14 10 -14 6 0 10 -5 10 -12 0
-6 19 -29 43 -50 57 -52 65 -58 73 -58 4 0 15 -6 23 -13 9 -8 39 -22 66 -32
46 -18 87 -19 525 -20 261 -1 483 2 493 7 9 5 17 17 17 26 0 19 30 49 69 69
15 8 66 13 141 13 126 0 151 -7 195 -54 23 -25 75 -37 75 -17 0 5 12 12 27 16
15 3 37 17 50 31 12 13 27 24 33 24 5 0 10 6 10 13 0 7 13 24 29 38 17 15 33
38 37 53 3 14 10 26 15 26 5 0 9 9 9 21 0 12 7 36 16 54 28 59 8 324 -32 412
-8 17 -14 35 -14 41 0 5 -7 23 -15 38 -8 16 -15 37 -15 47 0 9 -4 17 -10 17
-5 0 -10 6 -10 13 0 7 -16 36 -35 66 -19 29 -35 56 -35 61 0 5 -3 10 -7 12 -5
2 -26 25 -48 53 -48 60 -54 66 -131 133 -33 28 -65 52 -71 52 -6 0 -13 4 -15
8 -5 14 -118 77 -173 97 -27 10 -54 22 -60 26 -5 3 -26 10 -45 13 -19 4 -46
12 -60 17 -42 16 -227 25 -345 16z m-384 -534 c39 -19 79 -60 79 -79 0 -8 4
-14 9 -14 30 0 47 -232 23 -318 -31 -108 -116 -179 -186 -153 -50 20 -98 82
-117 153 -16 60 -23 197 -11 222 6 12 13 38 17 59 3 20 10 37 15 37 6 0 10 6
10 14 0 19 57 76 76 76 8 0 14 5 14 10 0 15 33 12 71 -7z m1080 0 c39 -19 79
-60 79 -79 0 -8 4 -14 10 -14 5 0 12 -17 15 -37 3 -21 10 -46 16 -55 5 -10 9
-50 9 -90 0 -180 -103 -327 -203 -289 -54 21 -117 107 -117 159 0 12 -4 24
-10 27 -6 3 -10 48 -10 100 0 52 4 97 10 100 6 3 10 16 10 28 0 25 32 90 58
117 19 19 71 49 88 50 6 0 26 -8 45 -17z m-320 -510 c2 -32 -3 -58 -12 -68 -5
-5 -9 -15 -9 -22 0 -29 -81 -122 -107 -123 -6 0 -13 -5 -15 -10 -6 -18 -121
-31 -179 -20 -30 6 -55 15 -57 20 -2 6 -10 10 -17 10 -21 0 -95 81 -102 110
-3 14 -9 30 -13 35 -8 10 -13 47 -11 73 1 9 60 12 261 12 241 0 260 -1 261
-17z"/>
<path d="M7436 4034 c3 -27 11 -57 16 -67 5 -11 12 -51 15 -91 5 -69 7 -73 36
-84 l30 -11 -5 -76 c-3 -42 -10 -81 -17 -88 -6 -6 -11 -18 -11 -26 0 -9 -7
-29 -15 -45 -15 -28 -15 -28 11 -22 36 9 121 66 128 85 3 9 10 23 15 31 30 47
41 88 41 160 0 67 -4 85 -31 135 -44 83 -100 127 -179 140 l-42 7 8 -48z"/>
<path d="M4506 4052 c-73 -43 -121 -114 -134 -197 -13 -89 -2 -159 38 -223 26
-42 94 -101 105 -91 2 3 6 83 9 179 3 114 10 189 19 215 8 22 17 61 20 88 6
40 4 47 -11 47 -9 0 -30 -8 -46 -18z"/>
<path d="M6872 2573 c-26 -3 -32 -8 -27 -21 5 -13 2 -13 -15 3 -11 10 -20 13
-20 7 0 -7 -6 -12 -13 -12 -22 0 -110 -99 -103 -116 3 -9 2 -12 -5 -8 -6 4 -9
-1 -8 -12 2 -11 0 -25 -5 -33 -5 -8 -10 -30 -12 -50 -3 -33 -2 -35 11 -17 8
11 15 28 15 39 0 10 5 15 10 12 7 -4 6 -13 -1 -27 -9 -16 -8 -23 2 -29 10 -6
11 -9 2 -9 -7 0 -13 -5 -13 -11 0 -8 4 -8 13 0 8 6 13 28 12 53 -1 24 0 53 3
66 4 21 5 22 18 5 12 -16 13 -15 15 12 1 17 1 37 0 45 -2 13 -1 13 9 0 9 -11
13 -12 17 -2 5 14 33 17 33 3 0 -5 -12 -12 -26 -15 -21 -6 -25 -12 -21 -31 2
-14 1 -25 -4 -25 -4 0 -10 -8 -12 -17 -4 -17 -5 -17 -6 0 -1 20 -21 23 -21 3
0 -25 22 -30 39 -9 9 11 23 18 31 16 13 -4 13 -3 0 6 -13 10 -13 12 0 21 10 6
11 10 3 10 -7 0 -13 5 -13 10 0 6 7 10 15 10 15 0 19 -11 15 -39 -1 -13 1 -13
14 -2 9 7 13 18 10 23 -3 5 2 18 11 28 12 13 15 25 10 37 -7 15 -9 13 -14 -11
-3 -16 -12 -31 -19 -32 -7 -1 -8 0 -2 3 12 6 13 40 1 47 -5 4 -11 0 -14 -6 -2
-7 -4 0 -4 16 0 19 2 24 8 15 11 -19 60 -22 53 -4 -3 7 -1 15 3 18 5 3 8 -14
7 -39 -2 -38 0 -43 12 -33 11 9 12 15 3 25 -9 11 -8 14 0 14 7 0 10 4 7 9 -4
5 -2 20 3 33 7 17 10 18 10 6 1 -10 6 -18 12 -18 13 0 8 33 -6 35 -5 1 -25 0
-43 -2z"/>
<path d="M5060 2560 c0 -5 12 -11 28 -11 23 -2 24 -2 5 -6 -22 -4 -33 -23 -14
-23 5 0 16 -3 24 -6 18 -6 29 30 14 45 -14 14 -57 14 -57 1z"/>
<path d="M5133 2556 c3 -7 -1 -26 -9 -41 -17 -32 -17 -35 -4 -35 6 0 10 5 10
10 0 6 9 19 20 30 19 19 20 19 16 -20 -4 -44 0 -49 20 -22 13 16 14 16 8 0 -3
-10 -2 -18 2 -18 5 0 9 -14 8 -32 -1 -39 15 -61 34 -46 6 6 12 17 12 25 0 8 5
11 11 7 8 -4 8 -9 0 -17 -6 -6 -11 -22 -10 -36 1 -25 1 -25 15 7 8 17 15 32
17 32 1 0 0 -21 -2 -46 -2 -34 0 -45 8 -39 7 4 11 14 10 23 -4 43 5 52 11 12
l7 -45 1 44 c2 47 -29 125 -61 151 -10 8 -27 23 -39 33 -12 9 -29 17 -40 17
-10 0 -18 5 -18 10 0 6 -7 10 -16 10 -10 0 -14 -6 -11 -14z m101 -126 c-1 -44
-14 -50 -14 -7 0 21 3 37 8 37 4 0 7 -14 6 -30z"/>
<path d="M6953 2544 c0 -14 2 -21 6 -17 3 4 9 10 12 13 4 3 1 10 -6 17 -10 9
-12 6 -12 -13z"/>
<path d="M5070 2502 c0 -12 19 -26 26 -19 2 2 -2 10 -11 17 -9 8 -15 8 -15 2z"/>
<path d="M5140 2490 c-8 -15 -6 -24 10 -40 12 -12 17 -26 13 -37 -5 -15 -3
-16 7 -6 20 18 20 50 1 49 -12 -1 -15 7 -13 27 3 32 -3 35 -18 7z"/>
<path d="M5180 2381 c0 -10 19 -25 25 -20 1 2 -3 10 -11 17 -8 7 -14 8 -14 3z"/>
<path d="M6775 2359 c-11 -16 -1 -19 13 -3 7 8 8 14 3 14 -5 0 -13 -5 -16 -11z"/>
<path d="M5615 669 c-196 -9 -412 -31 -516 -54 -37 -8 -75 -15 -85 -15 -24 -1
-109 -30 -151 -53 -38 -20 -44 -55 -13 -75 34 -21 121 -51 169 -58 25 -4 51
-9 56 -13 15 -9 175 -29 325 -41 74 -5 180 -14 235 -20 130 -13 587 -13 740 0
66 6 174 15 240 20 137 11 299 33 365 49 94 23 160 45 160 53 0 4 6 8 14 8 13
0 26 20 26 40 0 19 -45 50 -94 65 -258 81 -878 120 -1471 94z"/>
</g>
</svg>
